<?xml version="1.0" encoding="utf-8"?>
<!-- Generator: Adobe Illustrator 27.1.1, SVG Export Plug-In . SVG Version: 6.00 Build 0)  -->
<svg version="1.1" xmlns="http://www.w3.org/2000/svg" xmlns:xlink="http://www.w3.org/1999/xlink" x="0px" y="0px"
	 viewBox="0 0 952.5 1080" style="enable-background:new 0 0 952.5 1080;" xml:space="preserve">
<style type="text/css">
	.st0{fill:#FFFFFF;}
</style>
<g id="background">
</g>
<g id="symbol">
	<g>
		<path d="M398,544.6c-4.9,0-8.6,3.7-8.6,8.6c0,2.2,0.8,4.4,2.3,6c1.9,2.1,7.2,6.7,10.4,9.5c1.9,1.6,4.2,1.9,5.3,1.9
			c4.9,0,8.6-3.7,8.6-8.6c0-2.3-1.4-5.3-3.3-6.7c-2.8-2.1-7.7-6.7-8.8-7.9C402.4,545.8,399.9,544.6,398,544.6z M426.3,567.4
			c-4.4,0-7.7,3.3-7.7,7.7c0,3.3,1.9,5.6,4.4,7c1.6,0.9,4.9,2.1,7.2,3c1.6,0.7,1.9,0.7,2.3,0.7c5.6,0,8.1-3.9,8.1-7.4
			c0-3.7-2.6-6.5-4.6-7.4c-5.8-2.3-4.6-2.1-6.3-2.8C428.9,567.6,427.3,567.4,426.3,567.4z M454.7,577.9c-4.4-0.7-8.4,1.9-8.4,6.5
			c0,1.7,0.6,3.3,1.6,4.6c1.1,1.3,2.5,2.2,4.2,2.6c1.7,0.4,3.4,0.6,5.1,0.7c3.9,0,7-2.8,7-6.7c0-3.3-2.6-6.3-5.8-7
			C457,578.3,455.4,578.1,454.7,577.9z M417.8,533c-4.6,0-8.1,3.5-8.1,8.1c0,2.8,1.4,5.3,2.6,6.5c1.4,1.4,10.4,8.4,12.3,9.5
			c1.6,0.9,3.3,1.4,5.1,1.4c4.2,0,7.9-3.5,7.9-7.9c0-3-1.6-6-3.7-7.4c-3-1.9-7.4-5.3-10.2-7.9C421.7,533.7,419.8,533,417.8,533z
			 M476.3,580.9c-3.7,0-6.5,2.8-6.5,6.5c0,3.7,2.8,6.5,6.5,6.5c3.7,0,6.5-2.8,6.5-6.5C482.8,583.7,480,580.9,476.3,580.9z
			 M452.1,552.8c-6-1.4-9.8,1.6-9.8,6.5c0,3.9,2.3,6.7,5.3,7.7c5.1,1.6,7,2.1,8.4,2.1c3.9,0,7.4-3,7.4-7.4c0-3.5-2.1-6-5.8-7.2
			C451.2,552.5,452.6,552.8,452.1,552.8z M476.3,557.2c-3.7,0-6.5,2.8-6.5,6.5c0,3.7,2.8,6.5,6.5,6.5c3.7,0,6.5-2.8,6.5-6.5
			C482.8,560,480,557.2,476.3,557.2z M437.7,518.9c-4.2,0-7.7,3.5-7.7,7.9c0,2.3,1.4,4.9,3,6.3c3.3,2.8,14.4,9.3,21.4,11.4
			c0.8,0.3,1.7,0.4,2.6,0.5c1,0,2-0.2,2.9-0.6c0.9-0.4,1.8-0.9,2.5-1.7c0.7-0.7,1.3-1.6,1.7-2.5c0.4-0.9,0.6-1.9,0.6-2.9
			c0-3.9-2.8-6.7-5.3-7.7c-6-2.3-13-6-16.5-8.8C441.4,519.5,439.6,518.8,437.7,518.9z M476.3,533.5c-3.7,0-6.5,2.8-6.5,6.5
			s2.8,6.5,6.5,6.5c3.7,0,6.5-2.8,6.5-6.5S480,533.5,476.3,533.5z M476.5,360.3c-66.9,0-117,51.3-117,114.5c0,25.3,8.1,54.1,17,64.8
			c2.1,2.6,4.4,4.4,7.9,4.4c5.3,0,9.3-3.9,9.3-9.3c0-1.6-0.7-3.7-1.4-4.9c-2.1-3,1.4-5.1,3-2.3c1.4,2.3,4.6,4.6,8.4,4.6
			c4.9,0,8.8-4.2,8.8-8.8c0-1.8-0.5-3.6-1.4-5.1c-2.3-3.7,1.4-5.1,2.8-2.8c1.9,3,5.1,4.9,8.4,4.9c2.4,0,4.7-1,6.4-2.7
			c1.7-1.7,2.7-4,2.7-6.4c0-1.6-0.5-3.5-1.2-4.6c-5.1-9.1-7.4-18.3-7.4-28.8c0-33.2,23-57.1,53.6-57.1c25.1,0,45,16,51.5,39.7
			l60.1-19.5C573.3,393,530.1,360.3,476.5,360.3z M554.5,535.4c4.9,0,8.6-3.7,8.6-8.6c0-2.2-0.8-4.4-2.3-6
			c-1.9-2.1-7.2-6.7-10.4-9.5c-1.9-1.6-4.2-1.9-5.3-1.9c-4.9,0-8.6,3.7-8.6,8.6c0,2.3,1.4,5.3,3.3,6.7c2.8,2.1,7.7,6.7,8.8,7.9
			C550.1,534.2,552.7,535.4,554.5,535.4z M526.2,512.6c4.4,0,7.7-3.3,7.7-7.7c0-3.3-1.9-5.6-4.4-7c-1.6-0.9-4.9-2.1-7.2-3
			c-1.6-0.7-1.9-0.7-2.3-0.7c-5.6,0-8.1,3.9-8.1,7.4c0,3.7,2.6,6.5,4.6,7.4c5.8,2.3,4.6,2.1,6.3,2.8
			C523.6,512.4,525.3,512.6,526.2,512.6z M497.9,502.1c4.4,0.7,8.4-1.9,8.4-6.5c0-1.7-0.6-3.3-1.6-4.6c-1.1-1.3-2.5-2.2-4.2-2.6
			c-1.7-0.4-3.4-0.6-5.1-0.7c-3.9,0-7,2.8-7,6.7c0,3.3,2.6,6.3,5.8,7C495.5,501.7,497.2,501.9,497.9,502.1z M534.8,547
			c4.6,0,8.1-3.5,8.1-8.1c0-2.8-1.4-5.3-2.6-6.5c-1.4-1.4-10.4-8.4-12.3-9.5c-1.6-0.9-3.3-1.4-5.1-1.4c-4.2,0-7.9,3.5-7.9,7.9
			c0,3,1.6,6,3.7,7.4c3,1.9,7.4,5.3,10.2,7.9C530.8,546.3,532.7,547,534.8,547z M476.3,499.1c3.7,0,6.5-2.8,6.5-6.5
			c0-3.7-2.8-6.5-6.5-6.5c-3.7,0-6.5,2.8-6.5,6.5C469.8,496.3,472.6,499.1,476.3,499.1z M500.4,527.2c6,1.4,9.8-1.6,9.8-6.5
			c0-3.9-2.3-6.7-5.3-7.7c-5.1-1.6-7-2.1-8.4-2.1c-3.9,0-7.4,3-7.4,7.4c0,3.5,2.1,6,5.8,7.2C501.4,527.5,500,527.2,500.4,527.2z
			 M476.3,522.8c3.7,0,6.5-2.8,6.5-6.5c0-3.7-2.8-6.5-6.5-6.5c-3.7,0-6.5,2.8-6.5,6.5C469.8,520,472.6,522.8,476.3,522.8z
			 M514.8,561.1c4.2,0,7.7-3.5,7.7-7.9c0-2.3-1.4-4.9-3-6.3c-3.3-2.8-14.4-9.3-21.4-11.4c-0.8-0.3-1.7-0.4-2.6-0.5
			c-1,0-2,0.2-2.9,0.6c-0.9,0.4-1.8,0.9-2.5,1.7c-0.7,0.7-1.3,1.6-1.7,2.5c-0.4,0.9-0.6,1.9-0.6,2.9c0,3.9,2.8,6.7,5.3,7.7
			c6,2.3,13,6,16.5,8.8C511.1,560.5,512.9,561.2,514.8,561.1z M476.3,546.5c3.7,0,6.5-2.8,6.5-6.5s-2.8-6.5-6.5-6.5
			c-3.7,0-6.5,2.8-6.5,6.5S472.6,546.5,476.3,546.5z M476,719.7c66.9,0,117-51.3,117-114.5c0-25.3-8.1-54.1-17-64.8
			c-2.1-2.6-4.4-4.4-7.9-4.4c-5.3,0-9.3,3.9-9.3,9.3c0,1.6,0.7,3.7,1.4,4.9c2.1,3-1.4,5.1-3,2.3c-1.4-2.3-4.6-4.6-8.4-4.6
			c-4.9,0-8.8,4.2-8.8,8.8c0,1.8,0.5,3.6,1.4,5.1c2.3,3.7-1.4,5.1-2.8,2.8c-1.9-3-5.1-4.9-8.4-4.9c-2.4,0-4.7,1-6.4,2.7
			c-1.7,1.7-2.7,4-2.7,6.4c0,1.6,0.5,3.5,1.2,4.6c5.1,9.1,7.4,18.3,7.4,28.8c0,33.2-23,57.1-53.6,57.1c-25.1,0-45.1-16-51.6-39.7
			l-60.1,19.5C379.2,687,422.4,719.7,476,719.7z"/>
	</g>
</g>
<g id="logotype">
</g>
<g id="Layer_4">
</g>
</svg>
